<svg width="70.781250" height="30.070312" viewBox="0 0 70.7812 30.0703" fill="none" xmlns="http://www.w3.org/2000/svg" xmlns:xlink="http://www.w3.org/1999/xlink">
	<desc>
			Created with Pixso.
	</desc>
	<defs/>
	<path id="logo" d="M29.11 1.6C27.99 0.53 26.59 0 24.9 0Q23.22 2.38e-7 21.92 0.7Q21.27 1.06 20.71 1.6Q20.05 2.24 19.65 3.02Q19.06 4.18 19.06 5.64Q19.06 7 19.59 8.1Q19.99 8.93 20.7 9.61C21.8 10.66 23.17 11.19 24.82 11.19C26.54 11.19 27.97 10.66 29.1 9.61C30.23 8.55 30.8 7.22 30.8 5.61Q30.8 4.26 30.27 3.17Q29.86 2.3 29.11 1.6ZM2.06 5.77L3.25 6.49Q4.61 7.33 4.68 8.27Q4.68 8.33 4.68 8.38Q4.68 8.65 4.59 8.88Q4.46 9.18 4.19 9.41C3.87 9.68 3.46 9.82 2.97 9.82Q2.57 9.82 2.19 9.72Q1 9.43 0.04 8.21L0.04 10.2Q0.79 10.76 1.63 11Q2.28 11.19 2.99 11.19Q4.09 11.19 4.86 10.69Q5.08 10.55 5.27 10.37Q5.59 10.07 5.8 9.7Q6.15 9.07 6.15 8.24Q6.15 7.73 6 7.28Q5.61 6.07 4.15 5.21L2.96 4.5Q2.15 4.03 1.79 3.6Q1.52 3.27 1.45 2.91Q1.43 2.8 1.43 2.68Q1.43 2.46 1.51 2.27Q1.63 1.99 1.92 1.78C2.25 1.54 2.67 1.42 3.18 1.42Q3.43 1.42 3.68 1.46Q4.76 1.63 5.72 2.55L5.72 0.78Q5.14 0.38 4.49 0.19Q3.88 0.01 3.21 0.01Q2.05 0.01 1.23 0.55Q1.05 0.67 0.89 0.82Q0.54 1.13 0.32 1.52Q0 2.13 0 2.91Q0 3.47 0.19 3.95Q0.3 4.2 0.46 4.43Q0.94 5.09 2.06 5.77ZM32.63 0.14L32.63 11.07L34.2 11.07L34.2 6.33L35.35 6.33C36.39 6.33 37.18 6.22 37.73 6C38.28 5.78 38.72 5.42 39.03 4.93C39.35 4.44 39.51 3.88 39.51 3.25C39.51 2.3 39.2 1.54 38.58 0.98C37.96 0.42 37.13 0.14 36.09 0.14L32.63 0.14ZM17.13 0.15L15.57 0.15L15.57 4.87L9.43 4.87L9.43 0.15L7.87 0.15L7.87 11.07L9.43 11.07L9.43 6.32L15.57 6.32L15.57 11.07L17.13 11.07L17.13 0.15ZM22.7 2.03Q23.68 1.48 24.96 1.48Q26 1.48 26.84 1.88Q27.45 2.17 27.96 2.67C28.78 3.45 29.19 4.42 29.19 5.58C29.19 6.77 28.78 7.76 27.96 8.56Q27.5 9.01 26.95 9.3Q26.05 9.75 24.92 9.75Q23.76 9.75 22.85 9.28Q22.33 9.01 21.89 8.58Q21.37 8.08 21.08 7.48Q20.67 6.66 20.67 5.64Q20.67 4.49 21.16 3.6Q21.43 3.08 21.88 2.65Q22.26 2.28 22.7 2.03ZM34.2 1.53L35.82 1.53Q37.07 1.53 37.57 2.14Q37.89 2.54 37.89 3.21Q37.89 3.85 37.58 4.27Q37.49 4.39 37.38 4.5C37.03 4.79 36.54 4.94 35.91 4.94L34.2 4.94L34.2 1.53ZM9.63 29.23C10.27 28.67 10.59 27.93 10.59 27C10.59 26.29 10.39 25.71 10 25.27C9.62 24.82 9.05 24.45 8.32 24.16C8.55 24.07 8.78 23.92 9.01 23.71C9.25 23.49 9.44 23.21 9.6 22.88Q9.64 22.79 9.67 22.69Q9.83 22.26 9.83 21.78Q9.83 21.34 9.69 20.96Q9.65 20.86 9.6 20.77C9.45 20.46 9.22 20.2 8.92 19.97Q8.46 19.63 7.7 19.43C7.2 19.3 6.61 19.24 5.93 19.24L0.7 19.24L0.7 30.07L6.96 30.07C8.1 30.07 8.99 29.79 9.63 29.23ZM20.76 30.07L24.1 30.07L19.33 19.24L15.72 19.24L10.93 30.07L14.28 30.07L15.17 27.87L19.88 27.87L20.76 30.07ZM32.95 30.07L36.93 30.07L32.25 24.31L36.28 19.24L32.73 19.24L28.81 24.08L28.81 19.24L25.54 19.24L25.54 30.07L28.81 30.07L28.81 25L32.95 30.07ZM38.35 30.07L46.52 30.07L46.52 27.89L41.62 27.89L41.62 25.57L46.17 25.57L46.17 23.39L41.62 23.39L41.62 21.41L46.39 21.41L46.39 19.24L38.35 19.24L38.35 30.07ZM55.69 30.07L59.2 30.07L58.1 27.71C57.71 26.86 57.4 26.3 57.17 26.03C56.95 25.75 56.66 25.5 56.32 25.3C56.61 25.14 56.87 24.98 57.1 24.81C57.34 24.64 57.56 24.36 57.77 23.99C57.98 23.61 58.09 23.14 58.09 22.6C58.09 22.13 57.96 21.63 57.71 21.11C57.46 20.59 57.04 20.15 56.47 19.78C55.9 19.42 55.16 19.24 54.27 19.24L48.71 19.24L48.71 30.07L51.98 30.07L51.98 25.84L52.35 25.84Q52.91 25.84 53.26 25.98C53.5 26.07 53.75 26.28 54 26.6C54.25 26.93 54.53 27.44 54.84 28.14L55.69 30.07ZM66.53 25.1L70.78 19.24L67.32 19.24L64.82 22.64L62.34 19.24L58.95 19.24L63.27 25.17L63.27 30.07L66.53 30.07L66.53 25.1ZM6.26 21.32C6.6 21.49 6.78 21.83 6.78 22.35C6.78 22.88 6.61 23.22 6.28 23.39Q5.78 23.65 4.67 23.65L3.96 23.65L3.96 21.06L4.65 21.06Q5.75 21.06 6.26 21.32ZM54.27 21.61C54.6 21.81 54.76 22.16 54.76 22.66Q54.76 23.28 54.45 23.56Q54.39 23.62 54.32 23.67C54.02 23.84 53.48 23.92 52.68 23.92L51.98 23.92L51.98 21.32L52.67 21.32C53.41 21.32 53.94 21.41 54.27 21.61ZM17.54 22.03L19.13 25.99L15.94 25.99L17.54 22.03ZM7.1 26.11Q7.31 26.41 7.31 26.86Q7.31 27.3 7.1 27.61Q6.66 28.25 5.29 28.25L3.96 28.25L3.96 25.47L5.29 25.47Q6.66 25.47 7.1 26.11Z" fill="#31261A" fill-opacity="1.000000" fill-rule="evenodd"/>
</svg>
